<svg width="20" height="19" viewBox="0 0 20 19" fill="none" xmlns="http://www.w3.org/2000/svg">
<path fill-rule="evenodd" clip-rule="evenodd" d="M10.001 13.4403C9.587 13.4403 9.251 13.1104 9.251 12.704V0.881872C9.251 0.475399 9.587 0.145508 10.001 0.145508C10.415 0.145508 10.751 0.475399 10.751 0.881872V12.704C10.751 13.1104 10.415 13.4403 10.001 13.4403" fill="#FF5F01"/>
<path fill-rule="evenodd" clip-rule="evenodd" d="M10.001 13.4403C9.802 13.4403 9.61 13.3627 9.47 13.2233L6.554 10.3495C6.262 10.0608 6.263 9.59448 6.556 9.30779C6.85 9.0211 7.324 9.0211 7.616 9.30975L10.001 11.6612L12.386 9.30975C12.678 9.0211 13.152 9.0211 13.446 9.30779C13.739 9.59448 13.74 10.0608 13.448 10.3495L10.532 13.2233C10.392 13.3627 10.2 13.4403 10.001 13.4403" fill="#FF5F01"/>
<mask id="mask0" mask-type="alpha" maskUnits="userSpaceOnUse" x="0" y="4" width="20" height="15">
<path fill-rule="evenodd" clip-rule="evenodd" d="M0.000200272 4.79199H20V18.2861H0.000200272V4.79199Z" fill="white"/>
</mask>
<g mask="url(#mask0)">
<path fill-rule="evenodd" clip-rule="evenodd" d="M15.5752 18.2861H4.4352C1.9902 18.2861 0.000200272 16.3333 0.000200272 13.9317V9.13556C0.000200272 6.73992 1.9852 4.79199 4.4262 4.79199H5.3672C5.7812 4.79199 6.1172 5.12188 6.1172 5.52836C6.1172 5.93483 5.7812 6.26472 5.3672 6.26472H4.4262C2.8122 6.26472 1.5002 7.55189 1.5002 9.13556V13.9317C1.5002 15.5213 2.8162 16.8134 4.4352 16.8134H15.5752C17.1872 16.8134 18.5002 15.5243 18.5002 13.9416V9.14636C18.5002 7.5568 17.1832 6.26472 15.5662 6.26472H14.6342C14.2202 6.26472 13.8842 5.93483 13.8842 5.52836C13.8842 5.12188 14.2202 4.79199 14.6342 4.79199H15.5662C18.0112 4.79199 20.0002 6.74581 20.0002 9.14636V13.9416C20.0002 16.3372 18.0142 18.2861 15.5752 18.2861" fill="#FF5F01"/>
</g>
</svg>
