<svg width="16" height="17" viewBox="0 0 16 17" fill="none" xmlns="http://www.w3.org/2000/svg">
<path d="M13.9333 11.1128C13.0222 11.1128 12.1407 10.9673 11.3185 10.7055C11.0592 10.6182 10.7704 10.6837 10.5704 10.88L9.40739 12.3128C7.31109 11.331 5.34813 9.47641 4.30368 7.3455L5.74813 6.13823C5.94813 5.93459 6.00739 5.65095 5.92591 5.39641C5.65183 4.58913 5.51109 3.72368 5.51109 2.82913C5.51109 2.4364 5.17776 2.10913 4.77776 2.10913H2.21479C1.81479 2.10913 1.33331 2.28368 1.33331 2.82913C1.33331 9.5855 7.05924 15.2001 13.9333 15.2001C14.4592 15.2001 14.6666 14.7419 14.6666 14.3419V11.8328C14.6666 11.44 14.3333 11.1128 13.9333 11.1128Z" fill="#DBDBDB"/>
</svg>
