<svg width="64" height="64" viewBox="0 0 64 64" fill="none" xmlns="http://www.w3.org/2000/svg">
<circle cx="32" cy="32" r="31" stroke="#7E8385" stroke-width="2"/>
<path d="M31.7422 33.2969C31.7422 34.8698 31.4167 36.0729 30.7656 36.9062C30.1146 37.7396 29.1615 38.1562 27.9062 38.1562C26.6667 38.1562 25.7188 37.7474 25.0625 36.9297C24.4062 36.112 24.0703 34.9401 24.0547 33.4141V31.3203C24.0547 29.7318 24.3828 28.526 25.0391 27.7031C25.7005 26.8802 26.651 26.4688 27.8906 26.4688C29.1302 26.4688 30.0781 26.8776 30.7344 27.6953C31.3906 28.5078 31.7266 29.6771 31.7422 31.2031V33.2969ZM29.4844 31C29.4844 30.0573 29.3542 29.3724 29.0938 28.9453C28.8385 28.513 28.4375 28.2969 27.8906 28.2969C27.3594 28.2969 26.9661 28.5026 26.7109 28.9141C26.4609 29.3203 26.3281 29.9583 26.3125 30.8281V33.5938C26.3125 34.5208 26.4375 35.2109 26.6875 35.6641C26.9427 36.112 27.349 36.3359 27.9062 36.3359C28.4583 36.3359 28.8568 36.1198 29.1016 35.6875C29.3464 35.2552 29.474 34.5938 29.4844 33.7031V31ZM41.0703 38H33.2734V36.4531L36.9531 32.5312C37.4583 31.9792 37.8307 31.4974 38.0703 31.0859C38.3151 30.6745 38.4375 30.2839 38.4375 29.9141C38.4375 29.4089 38.3099 29.013 38.0547 28.7266C37.7995 28.4349 37.4349 28.2891 36.9609 28.2891C36.4505 28.2891 36.0469 28.4661 35.75 28.8203C35.4583 29.1693 35.3125 29.6302 35.3125 30.2031H33.0469C33.0469 29.5104 33.2109 28.8776 33.5391 28.3047C33.8724 27.7318 34.3411 27.2839 34.9453 26.9609C35.5495 26.6328 36.2344 26.4688 37 26.4688C38.1719 26.4688 39.0807 26.75 39.7266 27.3125C40.3776 27.875 40.7031 28.6693 40.7031 29.6953C40.7031 30.2578 40.5573 30.8307 40.2656 31.4141C39.974 31.9974 39.474 32.6771 38.7656 33.4531L36.1797 36.1797H41.0703V38Z" fill="white"/>
</svg>
