<svg width="64" height="64" viewBox="0 0 64 64" fill="none" xmlns="http://www.w3.org/2000/svg">
<circle cx="32" cy="32" r="31" stroke="#7E8385" stroke-width="2"/>
<mask id="path-2-inside-1" fill="white">
<path d="M32 0C26.4618 -6.60425e-08 21.0184 1.43734 16.2021 4.17146C11.3859 6.90559 7.36166 10.8429 4.52303 15.5983C1.6844 20.3537 0.12855 25.7644 0.00762855 31.3013C-0.113293 36.8382 1.20486 42.3117 3.83317 47.1865C6.46148 52.0613 10.31 56.1705 15.0023 59.1123C19.6946 62.0541 25.07 63.7277 30.603 63.9695C36.1359 64.2113 41.6368 63.013 46.5679 60.4917C51.4989 57.9705 55.6912 54.2126 58.7347 49.5857L56.9878 48.4366C54.1431 52.7612 50.2248 56.2735 45.616 58.63C41.0071 60.9865 35.8656 62.1065 30.6942 61.8805C25.5229 61.6545 20.4986 60.0903 16.1129 57.3407C11.7273 54.5911 8.13024 50.7504 5.67368 46.1942C3.21711 41.6379 1.98509 36.5221 2.09811 31.347C2.21113 26.1719 3.66532 21.1147 6.31846 16.67C8.97161 12.2253 12.7329 8.54533 17.2344 5.98987C21.736 3.4344 26.8237 2.09098 32 2.09098V0Z"/>
</mask>
<path d="M32 0C26.4618 -6.60425e-08 21.0184 1.43734 16.2021 4.17146C11.3859 6.90559 7.36166 10.8429 4.52303 15.5983C1.6844 20.3537 0.12855 25.7644 0.00762855 31.3013C-0.113293 36.8382 1.20486 42.3117 3.83317 47.1865C6.46148 52.0613 10.31 56.1705 15.0023 59.1123C19.6946 62.0541 25.07 63.7277 30.603 63.9695C36.1359 64.2113 41.6368 63.013 46.5679 60.4917C51.4989 57.9705 55.6912 54.2126 58.7347 49.5857L56.9878 48.4366C54.1431 52.7612 50.2248 56.2735 45.616 58.63C41.0071 60.9865 35.8656 62.1065 30.6942 61.8805C25.5229 61.6545 20.4986 60.0903 16.1129 57.3407C11.7273 54.5911 8.13024 50.7504 5.67368 46.1942C3.21711 41.6379 1.98509 36.5221 2.09811 31.347C2.21113 26.1719 3.66532 21.1147 6.31846 16.67C8.97161 12.2253 12.7329 8.54533 17.2344 5.98987C21.736 3.4344 26.8237 2.09098 32 2.09098V0Z" stroke="#FF5F01" stroke-width="4" mask="url(#path-2-inside-1)"/>
<path d="M31.7422 33.2969C31.7422 34.8698 31.4167 36.0729 30.7656 36.9062C30.1146 37.7396 29.1615 38.1562 27.9062 38.1562C26.6667 38.1562 25.7188 37.7474 25.0625 36.9297C24.4062 36.112 24.0703 34.9401 24.0547 33.4141V31.3203C24.0547 29.7318 24.3828 28.526 25.0391 27.7031C25.7005 26.8802 26.651 26.4688 27.8906 26.4688C29.1302 26.4688 30.0781 26.8776 30.7344 27.6953C31.3906 28.5078 31.7266 29.6771 31.7422 31.2031V33.2969ZM29.4844 31C29.4844 30.0573 29.3542 29.3724 29.0938 28.9453C28.8385 28.513 28.4375 28.2969 27.8906 28.2969C27.3594 28.2969 26.9661 28.5026 26.7109 28.9141C26.4609 29.3203 26.3281 29.9583 26.3125 30.8281V33.5938C26.3125 34.5208 26.4375 35.2109 26.6875 35.6641C26.9427 36.112 27.349 36.3359 27.9062 36.3359C28.4583 36.3359 28.8568 36.1198 29.1016 35.6875C29.3464 35.2552 29.474 34.5938 29.4844 33.7031V31ZM38.7578 38H36.5V29.2969L33.8047 30.1328V28.2969L38.5156 26.6094H38.7578V38Z" fill="white"/>
</svg>
