<svg width="64" height="64" viewBox="0 0 64 64" fill="none" xmlns="http://www.w3.org/2000/svg">
<circle cx="32" cy="32" r="31" stroke="#7E8385" stroke-width="2"/>
<path d="M31.7422 33.2969C31.7422 34.8698 31.4167 36.0729 30.7656 36.9062C30.1146 37.7396 29.1615 38.1562 27.9062 38.1562C26.6667 38.1562 25.7188 37.7474 25.0625 36.9297C24.4062 36.112 24.0703 34.9401 24.0547 33.4141V31.3203C24.0547 29.7318 24.3828 28.526 25.0391 27.7031C25.7005 26.8802 26.651 26.4688 27.8906 26.4688C29.1302 26.4688 30.0781 26.8776 30.7344 27.6953C31.3906 28.5078 31.7266 29.6771 31.7422 31.2031V33.2969ZM29.4844 31C29.4844 30.0573 29.3542 29.3724 29.0938 28.9453C28.8385 28.513 28.4375 28.2969 27.8906 28.2969C27.3594 28.2969 26.9661 28.5026 26.7109 28.9141C26.4609 29.3203 26.3281 29.9583 26.3125 30.8281V33.5938C26.3125 34.5208 26.4375 35.2109 26.6875 35.6641C26.9427 36.112 27.349 36.3359 27.9062 36.3359C28.4583 36.3359 28.8568 36.1198 29.1016 35.6875C29.3464 35.2552 29.474 34.5938 29.4844 33.7031V31ZM35.5703 31.3125H36.7734C37.3464 31.3125 37.7708 31.1693 38.0469 30.8828C38.3229 30.5964 38.4609 30.2161 38.4609 29.7422C38.4609 29.2839 38.3229 28.9271 38.0469 28.6719C37.776 28.4167 37.401 28.2891 36.9219 28.2891C36.4896 28.2891 36.1276 28.4089 35.8359 28.6484C35.5443 28.8828 35.3984 29.1901 35.3984 29.5703H33.1406C33.1406 28.9766 33.2995 28.4453 33.6172 27.9766C33.9401 27.5026 34.388 27.1328 34.9609 26.8672C35.5391 26.6016 36.1745 26.4688 36.8672 26.4688C38.0703 26.4688 39.013 26.7578 39.6953 27.3359C40.3776 27.9089 40.7188 28.7005 40.7188 29.7109C40.7188 30.2318 40.5599 30.7109 40.2422 31.1484C39.9245 31.5859 39.5078 31.9219 38.9922 32.1562C39.6328 32.3854 40.1094 32.7292 40.4219 33.1875C40.7396 33.6458 40.8984 34.1875 40.8984 34.8125C40.8984 35.8229 40.5286 36.6328 39.7891 37.2422C39.0547 37.8516 38.0807 38.1562 36.8672 38.1562C35.7318 38.1562 34.8021 37.8568 34.0781 37.2578C33.3594 36.6589 33 35.8672 33 34.8828H35.2578C35.2578 35.3099 35.4167 35.6589 35.7344 35.9297C36.0573 36.2005 36.4531 36.3359 36.9219 36.3359C37.4583 36.3359 37.8776 36.1953 38.1797 35.9141C38.487 35.6276 38.6406 35.25 38.6406 34.7812C38.6406 33.6458 38.0156 33.0781 36.7656 33.0781H35.5703V31.3125Z" fill="white"/>
</svg>
